<svg width="40" height="40" viewBox="0 0 40 40" fill="none" xmlns="http://www.w3.org/2000/svg">
<path d="M23 8C22.1703 8 21.5 8.67031 21.5 9.5C21.5 10.3297 22.1703 11 23 11H26.8766L17.4359 20.4406C16.85 21.0266 16.85 21.9781 17.4359 22.5641C18.0219 23.15 18.9734 23.15 19.5594 22.5641L29 13.1234V17C29 17.8297 29.6703 18.5 30.5 18.5C31.3297 18.5 32 17.8297 32 17V9.5C32 8.67031 31.3297 8 30.5 8H23ZM11.75 12.5C9.67812 12.5 8 14.1781 8 16.25V28.25C8 30.3219 9.67812 32 11.75 32H23.75C25.8219 32 27.5 30.3219 27.5 28.25V24.5C27.5 23.6703 26.8297 23 26 23C25.1703 23 24.5 23.6703 24.5 24.5V28.25C24.5 28.6625 24.1625 29 23.75 29H11.75C11.3375 29 11 28.6625 11 28.25V16.25C11 15.8375 11.3375 15.5 11.75 15.5H15.5C16.3297 15.5 17 14.8297 17 14C17 13.1703 16.3297 12.5 15.5 12.5H11.75Z" fill="white"/>
</svg>
