<svg width="32" height="32" viewBox="0 0 32 32" fill="none" xmlns="http://www.w3.org/2000/svg">
<path d="M2.66699 16.0005C2.66699 11.5822 6.24872 8.00049 10.667 8.00049H13.333C14.0694 8.00049 14.667 8.59712 14.667 9.3335C14.667 10.0699 14.0694 10.6665 13.333 10.6665H10.667C7.72148 10.6665 5.33301 13.055 5.33301 16.0005C5.33318 18.9458 7.72159 21.3335 10.667 21.3335H13.333C14.0693 21.3335 14.6668 21.9303 14.667 22.6665C14.667 23.4029 14.0694 24.0005 13.333 24.0005H10.667C6.24882 24.0005 2.66717 20.4186 2.66699 16.0005ZM26.667 16.0005C26.667 13.055 24.2785 10.6665 21.333 10.6665H18.667C17.9306 10.6665 17.333 10.0699 17.333 9.3335C17.333 8.59712 17.9306 8.00049 18.667 8.00049H21.333C25.7513 8.00049 29.333 11.5822 29.333 16.0005C29.3328 20.4186 25.7511 24.0005 21.333 24.0005H18.667C17.9306 24.0005 17.333 23.4029 17.333 22.6665C17.3332 21.9303 17.9307 21.3335 18.667 21.3335H21.333C24.2784 21.3335 26.6668 18.9458 26.667 16.0005ZM21.333 14.6665C22.0694 14.6665 22.667 15.2641 22.667 16.0005C22.6668 16.7367 22.0693 17.3335 21.333 17.3335H10.667C9.93072 17.3335 9.33318 16.7367 9.33301 16.0005C9.33301 15.2641 9.93061 14.6665 10.667 14.6665H21.333Z" fill="black"/>
</svg>
