<svg width="15" height="15" viewBox="0 0 15 15" fill="none" xmlns="http://www.w3.org/2000/svg">
<path d="M10.9998 13.0001C10.4723 12.9925 9.96907 12.7769 9.59981 12.4001L7.4998 10.3001L5.39981 12.4001C5.22788 12.6293 5.0087 12.8189 4.75711 12.9561C4.50553 13.0932 4.22741 13.1747 3.94158 13.195C3.65576 13.2153 3.36891 13.174 3.10045 13.0738C2.832 12.9736 2.58821 12.8169 2.38559 12.6143C2.18297 12.4117 2.02626 12.1679 1.92606 11.8994C1.82587 11.631 1.78452 11.3441 1.80484 11.0583C1.82515 10.7725 1.90664 10.4943 2.0438 10.2427C2.18095 9.99116 2.37057 9.77198 2.5998 9.60005L4.6998 7.50005L2.5998 5.40005C2.22858 5.0478 2.01246 4.56253 1.99896 4.05096C1.98546 3.53939 2.17568 3.0434 2.52781 2.67205C2.55181 2.64672 2.5758 2.62272 2.5998 2.60005C2.95206 2.22883 3.43733 2.01271 3.9489 1.99921C4.46047 1.98571 4.95646 2.17593 5.32781 2.52805L5.39981 2.60005L7.4998 4.70005L9.59981 2.60005C9.95206 2.22883 10.4373 2.01271 10.9489 1.99921C11.4605 1.98571 11.9565 2.17593 12.3278 2.52805C12.3531 2.55205 12.3771 2.57605 12.3998 2.60005C12.771 2.95231 12.9871 3.43757 13.0007 3.94915C13.0142 4.46072 12.8239 4.95671 12.4718 5.32805C12.4478 5.35272 12.4238 5.37672 12.3998 5.40005L10.2998 7.50005L12.3998 9.60005C12.6739 9.8796 12.8599 10.2334 12.9348 10.6177C13.0097 11.002 12.9701 11.3997 12.8211 11.7618C12.672 12.1238 12.42 12.4341 12.0962 12.6542C11.7725 12.8743 11.3913 12.9946 10.9998 13.0001Z" fill="black"/>
<path d="M8.90002 7.5001L11.7 4.7001C11.8444 4.50753 11.9146 4.26932 11.8975 4.02921C11.8804 3.7891 11.7773 3.5632 11.6071 3.39299C11.4369 3.22278 11.211 3.11968 10.9709 3.10261C10.7308 3.08555 10.4926 3.15567 10.3 3.3001L7.50002 6.1001L4.70002 3.3001C4.50745 3.15567 4.26924 3.08555 4.02913 3.10261C3.78902 3.11968 3.56312 3.22278 3.39291 3.39299C3.2227 3.5632 3.1196 3.7891 3.10253 4.02921C3.08547 4.26932 3.15559 4.50753 3.30002 4.7001L6.10002 7.5001L3.30002 10.3001C3.11679 10.487 3.01416 10.7383 3.01416 11.0001C3.01416 11.2619 3.11679 11.5132 3.30002 11.7001C3.38801 11.7978 3.49618 11.8752 3.61704 11.927C3.73791 11.9788 3.86858 12.0038 4.00002 12.0001C4.13146 12.0038 4.26213 11.9788 4.38299 11.927C4.50385 11.8752 4.61202 11.7978 4.70002 11.7001L7.50002 8.9001L10.3 11.7001C10.4863 11.8827 10.7371 11.9843 10.9979 11.983C11.2588 11.9817 11.5085 11.8775 11.693 11.6931C11.8774 11.5086 11.9816 11.2589 11.9829 10.998C11.9843 10.7372 11.8826 10.4864 11.7 10.3001L8.90002 7.5001Z" fill="black"/>
</svg>
